<svg xmlns="http://www.w3.org/2000/svg" xmlns:xlink="http://www.w3.org/1999/xlink" width="79" height="76" viewBox="0 0 79 76"><defs><path id="mjfta" d="M994.921 2885.997h-74.843a2.09 2.09 0 0 1-2.08-2.098v-71.806c0-1.159.93-2.099 2.08-2.099h74.843a2.09 2.09 0 0 1 2.08 2.1v71.805a2.09 2.09 0 0 1-2.08 2.098zm-72.765-4.197h70.686v-56.72h-70.686zm70.686-67.608h-70.686v6.691h70.686zm-65.661 1.877c.803 0 1.454.658 1.454 1.468 0 .811-.651 1.468-1.454 1.468a1.461 1.461 0 0 1-1.455-1.468c0-.81.651-1.468 1.455-1.468zm4.35.001a1.46 1.46 0 0 1 1.454 1.467c0 .81-.651 1.467-1.454 1.467a1.46 1.46 0 0 1-1.453-1.467c0-.81.65-1.467 1.453-1.467zm4.35 0c.803 0 1.454.657 1.454 1.467 0 .811-.65 1.468-1.454 1.468a1.461 1.461 0 0 1-1.454-1.468c0-.81.651-1.468 1.454-1.468zm11.164 43.107c-.466 0-.93-.18-1.286-.539l-5.66-5.712a1.849 1.849 0 0 1 0-2.597l5.65-5.704a1.807 1.807 0 0 1 2.572 0c.71.717.71 1.879 0 2.596l-4.364 4.407 4.374 4.415c.71.717.71 1.88 0 2.596-.355.358-.82.538-1.286.538zm20.917 0c-.465 0-.932-.18-1.286-.539a1.847 1.847 0 0 1 0-2.596l4.365-4.406-4.375-4.415a1.85 1.85 0 0 1 0-2.597 1.807 1.807 0 0 1 2.572 0l5.66 5.713a1.842 1.842 0 0 1 0 2.596l-5.65 5.704a1.8 1.8 0 0 1-1.286.54zm-13.069 4.241c-.149 0-.301-.018-.452-.057a1.837 1.837 0 0 1-1.312-2.233l4.623-18.28a1.822 1.822 0 0 1 2.212-1.326 1.838 1.838 0 0 1 1.314 2.234l-4.624 18.28c-.21.83-.95 1.382-1.76 1.382z"/></defs><g><g transform="translate(-918 -2810)"><use fill="#3c3c3c" xlink:href="#mjfta"/></g></g></svg>