<svg xmlns="http://www.w3.org/2000/svg" xmlns:xlink="http://www.w3.org/1999/xlink" width="80" height="83" viewBox="0 0 80 83"><defs><path id="yrcja" d="M996.98 2437.014v12.263c0 1.125-.899 2.025-2.024 2.025h-11.924c-1.125 0-2.025-.9-2.025-2.025v-4.163h-22.048c.225 4.838 12.261 28.24 19.91 41.965.45.788.226 1.913-.45 2.475-6.861 5.85-8.549 11.589-8.999 14.513h2.588c1.125 0 2.025.9 2.025 2.026v9.9c0 1.125-.9 2.025-2.025 2.025h-29.923c-1.125 0-2.025-.9-2.025-2.025v-9.9c0-1.126.9-2.026 2.025-2.026h2.587c-.45-2.924-2.137-8.663-9-14.513-.674-.675-.9-1.687-.45-2.475 7.65-13.725 19.687-37.014 19.912-41.965h-22.16v4.163c0 1.125-.9 2.025-2.026 2.025h-11.924c-1.125 0-2.025-.9-2.025-2.025v-12.263c0-1.125.9-2.025 2.025-2.025h11.812c1.125 0 2.024.9 2.024 2.025v4.163h48.147v-4.163c0-1.125.9-2.025 2.025-2.025h11.924c1.125 0 2.025.9 2.025 2.025zm-68.057 1.912h-7.987v8.326h7.987zm25.536 43.878c0 1.463 1.125 2.588 2.587 2.588 1.463 0 2.588-1.125 2.588-2.588s-1.125-2.588-2.588-2.588c-1.35 0-2.587 1.238-2.587 2.588zm15.636 25.089H944.11v5.962h25.985zm4.612-20.364c-2.7-5.063-10.686-19.913-15.636-30.939v20.026c2.587.9 4.5 3.262 4.5 6.188a6.53 6.53 0 0 1-6.525 6.525 6.53 6.53 0 0 1-6.524-6.525c0-2.926 1.912-5.4 4.5-6.188v-19.914c-4.838 11.026-12.937 25.877-15.637 30.827 7.087 6.638 8.774 13.163 9.224 16.426h16.874c.45-3.263 2.138-9.788 9.224-16.426zm18.337-48.49h-7.987V2447.252h7.987z"/></defs><g><g transform="translate(-917 -2435)"><use fill="#3c3c3c" xlink:href="#yrcja"/></g></g></svg>