<svg xmlns="http://www.w3.org/2000/svg" xmlns:xlink="http://www.w3.org/1999/xlink" width="23" height="37" viewBox="0 0 23 37"><defs><path id="pf4ja" d="M963.154 931.416a1.66 1.66 0 0 1-1.657 1.659 1.66 1.66 0 0 1 0-3.318 1.66 1.66 0 0 1 1.657 1.66zm-.703-11.423c5.932.479 10.545 5.451 10.545 11.423v14.074c0 6.347-5.158 11.511-11.5 11.511-6.34 0-11.497-5.164-11.497-11.51v-14.075c0-5.976 4.613-10.948 10.544-11.423zm8.637 25.497v-14.074c0-5.295-4.303-9.601-9.591-9.601-5.289 0-9.59 4.306-9.59 9.6v14.075c0 5.295 4.302 9.601 9.59 9.601s9.59-4.306 9.59-9.601z"/></defs><g><g transform="translate(-950 -920)"><use fill="#fff" xlink:href="#pf4ja"/></g></g></svg>