<svg xmlns="http://www.w3.org/2000/svg" xmlns:xlink="http://www.w3.org/1999/xlink" width="28" height="32" viewBox="0 0 28 32"><defs><path id="rjxda" d="M1002.5 4200.497h-3a1.5 1.5 0 0 1-1.5-1.5v-6a1.5 1.5 0 0 1 1.5-1.498h3a1.5 1.5 0 0 1 1.5 1.499v6a1.5 1.5 0 0 1-1.5 1.5zm-3-15a1.5 1.5 0 0 1 3 0v4.5h-3zm-8 23h-3a1.5 1.5 0 0 1-1.5-1.499v-6a1.5 1.5 0 0 1 1.5-1.5h3a1.5 1.5 0 0 1 1.5 1.5v6a1.5 1.5 0 0 1-1.5 1.5zm-3-23a1.5 1.5 0 0 1 3 0v12.501h-3zm-8 19h-3a1.5 1.5 0 0 1-1.5-1.5v-6a1.5 1.5 0 0 1 1.5-1.499h3a1.5 1.5 0 0 1 1.5 1.5v6a1.5 1.5 0 0 1-1.5 1.5zm-3-19a1.5 1.5 0 0 1 3 0V4194h-3zm3 29a1.5 1.5 0 1 1-3 0v-8.499h3zm11 0a1.5 1.5 0 1 1-3 0v-4.5h3zm11 0a1.5 1.5 0 1 1-3 0V4202h3z"/></defs><g><g transform="translate(-976 -4184)"><use fill="#95e1d3" xlink:href="#rjxda"/></g></g></svg>