<svg xmlns="http://www.w3.org/2000/svg" xmlns:xlink="http://www.w3.org/1999/xlink" width="30" height="30" viewBox="0 0 30 30"><defs><path id="kw9qa" d="M735 6994c0 .652-.419 1.201-1 1.408v1.683a1.496 1.496 0 1 1-1.908 1.909h-1.684c-.207.58-.756 1-1.408 1a1.495 1.495 0 0 1-1.408-1h-1.684c-.207.58-.756 1-1.408 1a1.495 1.495 0 0 1-1.408-1h-1.684c-.206.58-.756 1-1.408 1a1.495 1.495 0 0 1-1.408-1h-1.684c-.207.58-.756 1-1.408 1a1.495 1.495 0 0 1-1.408-1h-1.684c-.206.58-.756 1-1.408 1a1.495 1.495 0 0 1-1.408-1h-1.684a1.495 1.495 0 0 1-2.908-.5c0-.652.419-1.202 1-1.409v-1.683c-.581-.207-1-.756-1-1.409 0-.652.419-1.201 1-1.407v-1.684c-.581-.207-1-.757-1-1.408 0-.652.419-1.202 1-1.409v-1.683c-.581-.207-1-.756-1-1.408 0-.653.419-1.202 1-1.409v-1.684c-.581-.206-1-.755-1-1.407s.419-1.202 1-1.408v-1.684c-.581-.207-1-.756-1-1.409 0-.652.419-1.201 1-1.407v-1.684a1.496 1.496 0 1 1 1.908-1.909h1.684c.206-.58.756-1 1.408-1 .652 0 1.202.42 1.408 1h1.684c.206-.58.756-1 1.408-1 .652 0 1.201.42 1.408 1h1.684c.206-.58.756-1 1.408-1 .652 0 1.202.42 1.408 1h1.684c.206-.58.756-1 1.408-1 .652 0 1.201.42 1.408 1h1.684c.206-.58.756-1 1.408-1 .652 0 1.201.42 1.408 1h1.684a1.495 1.495 0 0 1 2.908.5c0 .652-.419 1.202-1 1.409v1.684c.581.206 1 .755 1 1.407 0 .653-.419 1.202-1 1.409v1.684c.581.206 1 .756 1 1.408 0 .652-.419 1.201-1 1.407v1.684c.581.207 1 .756 1 1.409 0 .652-.419 1.201-1 1.408v1.683c.581.207 1 .757 1 1.409 0 .651-.419 1.201-1 1.408v1.684c.581.206 1 .755 1 1.407zm-4-20h-22v22h22zm-13 16l7-8.5 4.5 7v6h-19l6-6zm-3-7a3 3 0 1 1 0-6 3 3 0 0 1 0 6z"/></defs><g><g transform="translate(-705 -6970)"><use fill="#fff" xlink:href="#kw9qa"/></g></g></svg>